<mxfile host="app.diagrams.net" agent="Mozilla/5.0 (X11; Linux x86_64) AppleWebKit/537.36 (KHTML, like Gecko) Chrome/130.0.0.0 Safari/537.36" version="24.8.0">
  <diagram name="Page-1" id="7e0a89b8-554c-2b80-1dc8-d5c74ca68de4">
    <mxGraphModel dx="470" dy="246" grid="1" gridSize="10" guides="1" tooltips="1" connect="1" arrows="1" fold="1" page="1" pageScale="1" pageWidth="1100" pageHeight="850" background="#ffffff" math="0" shadow="0">
      <root>
        <mxCell id="0" />
        <mxCell id="1" parent="0" />
        <mxCell id="2" value="2k &lt;b&gt;Î©&lt;/b&gt;" style="verticalLabelPosition=bottom;shadow=0;dashed=0;align=center;html=1;verticalAlign=top;strokeWidth=1;shape=mxgraph.electrical.resistors.resistor_2;rounded=1;comic=0;labelBackgroundColor=none;fontFamily=Verdana;fontSize=12;rotation=-90;spacing=-2;" parent="1" vertex="1">
          <mxGeometry x="240" y="196" width="40" height="10" as="geometry" />
        </mxCell>
        <mxCell id="3" value="ESP8266" style="verticalLabelPosition=middle;verticalAlign=middle;html=1;shape=mxgraph.basic.rect;fillColor2=none;strokeWidth=2;size=20;indent=5;labelPosition=center;align=center;fontFamily=Helvetica;" parent="1" vertex="1">
          <mxGeometry x="80" y="80" width="120" height="280" as="geometry" />
        </mxCell>
        <mxCell id="4" value="&lt;div&gt;&lt;br&gt;&lt;/div&gt;" style="ellipse;whiteSpace=wrap;html=1;rounded=1;shadow=0;comic=0;labelBackgroundColor=none;strokeColor=none;strokeWidth=2;fillColor=#000000;fontFamily=Verdana;fontSize=12;align=left;labelPosition=right;verticalLabelPosition=middle;verticalAlign=middle;" parent="1" vertex="1">
          <mxGeometry x="298" y="237" width="4" height="4" as="geometry" />
        </mxCell>
        <mxCell id="11" value="3V3" style="ellipse;whiteSpace=wrap;html=1;rounded=1;shadow=0;comic=0;labelBackgroundColor=none;strokeColor=none;strokeWidth=2;fillColor=#000000;fontFamily=Helvetica;fontSize=12;align=left;labelPosition=right;verticalLabelPosition=middle;verticalAlign=middle;perimeterSpacing=0;" parent="1" vertex="1">
          <mxGeometry x="80" y="99" width="4" height="4" as="geometry" />
        </mxCell>
        <mxCell id="12" value="GND" style="ellipse;whiteSpace=wrap;html=1;rounded=1;shadow=0;comic=0;labelBackgroundColor=none;strokeColor=none;strokeWidth=2;fillColor=#000000;fontFamily=Helvetica;fontSize=12;align=left;labelPosition=right;verticalLabelPosition=middle;verticalAlign=middle;perimeterSpacing=0;" parent="1" vertex="1">
          <mxGeometry x="80" y="141" width="4" height="4" as="geometry" />
        </mxCell>
        <mxCell id="19" value="DI 5" style="ellipse;html=1;rounded=1;shadow=0;comic=0;strokeColor=none;strokeWidth=2;fillColor=#000000;align=left;labelPosition=left;verticalLabelPosition=middle;verticalAlign=middle;perimeterSpacing=0;spacingRight=0;aspect=fixed;spacing=-20;" parent="1" vertex="1">
          <mxGeometry x="196" y="140" width="4" height="4" as="geometry" />
        </mxCell>
        <mxCell id="20" value="DI 6" style="ellipse;html=1;rounded=1;shadow=0;comic=0;labelBackgroundColor=none;strokeColor=none;strokeWidth=2;fillColor=#000000;fontFamily=Helvetica;fontSize=12;align=left;labelPosition=left;verticalLabelPosition=middle;verticalAlign=middle;perimeterSpacing=0;spacing=-20;" parent="1" vertex="1">
          <mxGeometry x="196" y="179" width="4" height="4" as="geometry" />
        </mxCell>
        <mxCell id="31" value="&lt;div&gt;Arctic&lt;/div&gt;&lt;div&gt;PWM Fan&lt;br&gt;&lt;/div&gt;" style="verticalLabelPosition=middle;verticalAlign=middle;html=1;shape=mxgraph.basic.rect;fillColor2=none;strokeWidth=2;size=20;indent=5;labelPosition=center;align=right;fontFamily=Helvetica;spacingRight=4;" parent="1" vertex="1">
          <mxGeometry x="320" y="40" width="120" height="159" as="geometry" />
        </mxCell>
        <mxCell id="32" value="+12V" style="ellipse;whiteSpace=wrap;html=1;rounded=1;shadow=0;comic=0;labelBackgroundColor=none;strokeColor=none;strokeWidth=2;fillColor=#000000;fontFamily=Helvetica;fontSize=12;align=left;labelPosition=right;verticalLabelPosition=middle;verticalAlign=middle;" parent="1" vertex="1">
          <mxGeometry x="320" y="59" width="4" height="4" as="geometry" />
        </mxCell>
        <mxCell id="33" value="PWM Signal" style="ellipse;whiteSpace=wrap;html=1;rounded=1;shadow=0;comic=0;labelBackgroundColor=none;strokeColor=none;strokeWidth=2;fillColor=#000000;fontFamily=Helvetica;fontSize=12;align=left;labelPosition=right;verticalLabelPosition=middle;verticalAlign=middle;" parent="1" vertex="1">
          <mxGeometry x="320" y="99" width="4" height="4" as="geometry" />
        </mxCell>
        <mxCell id="34" value="RPM Speed" style="ellipse;whiteSpace=wrap;html=1;rounded=1;shadow=0;comic=0;labelBackgroundColor=none;strokeColor=none;strokeWidth=2;fillColor=#000000;fontFamily=Helvetica;fontSize=12;align=left;labelPosition=right;verticalLabelPosition=middle;verticalAlign=middle;" parent="1" vertex="1">
          <mxGeometry x="320" y="137" width="4" height="4" as="geometry" />
        </mxCell>
        <mxCell id="35" value="Ground" style="ellipse;whiteSpace=wrap;html=1;rounded=1;shadow=0;comic=0;labelBackgroundColor=none;strokeColor=none;strokeWidth=2;fillColor=#000000;fontFamily=Helvetica;fontSize=12;align=left;labelPosition=right;verticalLabelPosition=middle;verticalAlign=middle;" parent="1" vertex="1">
          <mxGeometry x="320" y="179" width="4" height="4" as="geometry" />
        </mxCell>
        <mxCell id="42" style="edgeStyle=orthogonalEdgeStyle;rounded=0;orthogonalLoop=1;jettySize=auto;html=1;exitX=1;exitY=1;exitDx=0;exitDy=0;entryX=-0.008;entryY=0.157;entryDx=0;entryDy=0;fontFamily=Helvetica;endArrow=none;endFill=0;strokeWidth=1;entryPerimeter=0;fillColor=#fa6800;strokeColor=#C73500;" parent="1" edge="1">
          <mxGeometry relative="1" as="geometry">
            <mxPoint x="200.97421356237302" y="142.70421356237307" as="sourcePoint" />
            <mxPoint x="319.99999999999994" y="104.96299999999997" as="targetPoint" />
            <Array as="points">
              <mxPoint x="200.96" y="141" />
              <mxPoint x="239.96" y="141" />
              <mxPoint x="239.96" y="100" />
              <mxPoint x="319.96" y="100" />
            </Array>
          </mxGeometry>
        </mxCell>
        <mxCell id="43" style="edgeStyle=orthogonalEdgeStyle;rounded=0;orthogonalLoop=1;jettySize=auto;html=1;exitX=1;exitY=1;exitDx=0;exitDy=0;entryX=-0.008;entryY=0.157;entryDx=0;entryDy=0;fontFamily=Helvetica;endArrow=none;endFill=0;strokeWidth=1;entryPerimeter=0;fillColor=#647687;strokeColor=#314354;" parent="1" edge="1">
          <mxGeometry relative="1" as="geometry">
            <mxPoint x="200.97421356237305" y="182.00421356237308" as="sourcePoint" />
            <mxPoint x="320" y="144.26299999999998" as="targetPoint" />
            <Array as="points">
              <mxPoint x="201" y="180" />
              <mxPoint x="260" y="180" />
              <mxPoint x="260" y="139" />
              <mxPoint x="320" y="139" />
            </Array>
          </mxGeometry>
        </mxCell>
        <mxCell id="44" style="edgeStyle=orthogonalEdgeStyle;rounded=0;orthogonalLoop=1;jettySize=auto;html=1;fontFamily=Helvetica;endArrow=none;endFill=0;strokeWidth=1;entryX=0.008;entryY=0.225;entryDx=0;entryDy=0;entryPerimeter=0;exitX=-0.017;exitY=0.88;exitDx=0;exitDy=0;exitPerimeter=0;fillColor=#ffe6cc;strokeColor=#d79b00;" parent="1" source="31" target="3" edge="1">
          <mxGeometry relative="1" as="geometry">
            <mxPoint x="300" y="180" as="sourcePoint" />
            <mxPoint x="40" y="140" as="targetPoint" />
            <Array as="points">
              <mxPoint x="300" y="180" />
              <mxPoint x="300" y="240" />
              <mxPoint x="460" y="240" />
              <mxPoint x="460" y="460" />
              <mxPoint x="60" y="460" />
              <mxPoint x="60" y="143" />
            </Array>
          </mxGeometry>
        </mxCell>
        <mxCell id="47" style="edgeStyle=orthogonalEdgeStyle;rounded=0;orthogonalLoop=1;jettySize=auto;html=1;exitX=0.5;exitY=1;exitDx=0;exitDy=0;fontFamily=Helvetica;endArrow=none;endFill=0;strokeWidth=1;entryX=0;entryY=0.082;entryDx=0;entryDy=0;entryPerimeter=0;fillColor=#008a00;strokeColor=#005700;" parent="1" source="50" target="3" edge="1">
          <mxGeometry relative="1" as="geometry">
            <mxPoint x="319.03999999999996" y="319.966" as="sourcePoint" />
            <mxPoint x="60.960000000000036" y="163" as="targetPoint" />
            <Array as="points">
              <mxPoint x="260" y="480" />
              <mxPoint x="40" y="480" />
              <mxPoint x="40" y="100" />
              <mxPoint x="80" y="100" />
            </Array>
          </mxGeometry>
        </mxCell>
        <mxCell id="48" value="" style="ellipse;whiteSpace=wrap;html=1;rounded=1;shadow=0;comic=0;labelBackgroundColor=none;strokeColor=none;strokeWidth=2;fillColor=#000000;fontFamily=Helvetica;fontSize=12;align=left;labelPosition=right;verticalLabelPosition=middle;verticalAlign=middle;" parent="1" vertex="1">
          <mxGeometry x="258" y="178" width="4" height="4" as="geometry" />
        </mxCell>
        <mxCell id="50" value="" style="ellipse;whiteSpace=wrap;html=1;rounded=1;shadow=0;comic=0;labelBackgroundColor=none;strokeColor=none;strokeWidth=2;fillColor=#000000;fontFamily=Helvetica;fontSize=12;align=left;labelPosition=right;verticalLabelPosition=middle;verticalAlign=middle;" parent="1" vertex="1">
          <mxGeometry x="258" y="218" width="4" height="4" as="geometry" />
        </mxCell>
        <mxCell id="_Hi3OK0CSYtpdMk9XRyq-51" value="Zimablade" style="rounded=0;whiteSpace=wrap;html=1;align=center;" parent="1" vertex="1">
          <mxGeometry x="320" y="380" width="120" height="60" as="geometry" />
        </mxCell>
        <mxCell id="_Hi3OK0CSYtpdMk9XRyq-52" value="&lt;font style=&quot;font-size: 5px;&quot;&gt;FAN_PWM&lt;/font&gt;" style="rounded=0;whiteSpace=wrap;html=1;" parent="1" vertex="1">
          <mxGeometry x="330" y="380" width="30" height="10" as="geometry" />
        </mxCell>
        <mxCell id="_Hi3OK0CSYtpdMk9XRyq-53" value="" style="endArrow=none;html=1;rounded=0;exitX=1;exitY=0;exitDx=0;exitDy=0;entryX=-0.713;entryY=0.38;entryDx=0;entryDy=0;entryPerimeter=0;fillColor=#1ba1e2;strokeColor=#006EAF;" parent="1" target="32" edge="1">
          <mxGeometry width="50" height="50" relative="1" as="geometry">
            <mxPoint x="350" y="380" as="sourcePoint" />
            <mxPoint x="290" y="60" as="targetPoint" />
            <Array as="points">
              <mxPoint x="350" y="280" />
              <mxPoint x="290" y="280" />
              <mxPoint x="290" y="60" />
            </Array>
          </mxGeometry>
        </mxCell>
        <mxCell id="_Hi3OK0CSYtpdMk9XRyq-55" value="" style="endArrow=none;html=1;rounded=0;exitX=0.5;exitY=0;exitDx=0;exitDy=0;" parent="1" edge="1">
          <mxGeometry width="50" height="50" relative="1" as="geometry">
            <mxPoint x="340" y="380" as="sourcePoint" />
            <mxPoint x="340" y="320" as="targetPoint" />
          </mxGeometry>
        </mxCell>
        <mxCell id="_Hi3OK0CSYtpdMk9XRyq-57" value="" style="endArrow=none;html=1;rounded=0;exitX=0.5;exitY=0;exitDx=0;exitDy=0;fillColor=#ffe6cc;strokeColor=#d79b00;" parent="1" edge="1">
          <mxGeometry width="50" height="50" relative="1" as="geometry">
            <mxPoint x="360" y="380" as="sourcePoint" />
            <mxPoint x="360" y="240" as="targetPoint" />
          </mxGeometry>
        </mxCell>
        <mxCell id="_Hi3OK0CSYtpdMk9XRyq-58" value="" style="endArrow=none;html=1;rounded=0;exitX=0.5;exitY=0;exitDx=0;exitDy=0;" parent="1" edge="1">
          <mxGeometry width="50" height="50" relative="1" as="geometry">
            <mxPoint x="330" y="380" as="sourcePoint" />
            <mxPoint x="330" y="320" as="targetPoint" />
          </mxGeometry>
        </mxCell>
        <mxCell id="vPeDOApdYSOnZd_sRXSp-50" value="&lt;font style=&quot;font-size: 10px;&quot;&gt;USB&lt;/font&gt;" style="rounded=0;whiteSpace=wrap;html=1;" vertex="1" parent="1">
          <mxGeometry x="110" y="350" width="50" height="10" as="geometry" />
        </mxCell>
        <mxCell id="vPeDOApdYSOnZd_sRXSp-51" value="" style="endArrow=none;html=1;rounded=0;entryX=0.5;entryY=1;entryDx=0;entryDy=0;exitX=0;exitY=0.5;exitDx=0;exitDy=0;" edge="1" parent="1" source="_Hi3OK0CSYtpdMk9XRyq-51" target="vPeDOApdYSOnZd_sRXSp-50">
          <mxGeometry width="50" height="50" relative="1" as="geometry">
            <mxPoint x="135" y="400" as="sourcePoint" />
            <mxPoint x="300" y="350" as="targetPoint" />
            <Array as="points">
              <mxPoint x="135" y="410" />
            </Array>
          </mxGeometry>
        </mxCell>
      </root>
    </mxGraphModel>
  </diagram>
</mxfile>
